<svg xmlns="http://www.w3.org/2000/svg" viewBox="0 0 255.82 73.73"><defs><style>.a{fill:#364b9b;}.b{fill:#f9ea31;}.c{fill:#9e1460;}.d{fill:#502462;}.e{fill:#35ae73;}.f{fill:#1694bb;}.g{fill:#32bef0;}.h{fill:#2dabe3;}.i{fill:#e7267a;}.j{fill:#fab825;}.k{fill:#e52629;}.l{fill:#010101;}</style></defs><title>THE DECIDER LOGO</title><path class="a" d="M61,36.9l-3.32,4.23,9.54,5.52L59.92,59.2,63,62.28l21.23,1.13L84,67.25l2.36-.06a37,37,0,0,0-2.54-36L71.72,45.83Z" transform="translate(-16.18 -14.62)"/><polygon class="b" points="25.85 17.5 31.83 11.53 22.2 3.54 21.59 15.03 25.85 17.5"/><polygon class="c" points="31.83 11.53 25.85 17.5 41.46 26.52 44.78 22.28 31.83 11.53"/><path class="d" d="M57.64,41.13l-15.6-9-4.26-2.46-.38,7.09-.13,2.45-2.21-.12-5-.26,2,3.31,8.62,14.54,3,5L23.56,73.6a36.94,36.94,0,0,0,20.2,13.55,35.83,35.83,0,0,0,7,1.12l-.18-7.14L48.47,79,42.7,73.24,58.34,57.61l1.58,1.59,7.26-12.55Z" transform="translate(-16.18 -14.62)"/><path class="e" d="M38,17.83a36.5,36.5,0,0,0-9.71,6.34,37.79,37.79,0,0,0-4.23,4.54l6,10.1,5,.26,2.21.12.13-2.45.38-7.09.61-11.5Z" transform="translate(-16.18 -14.62)"/><polygon class="f" points="67.84 52.64 68.05 48.79 46.81 47.66 52.19 53.05 67.84 52.64"/><path class="g" d="M43.53,15.87a39.15,39.15,0,0,0-5.12,1.78l0,.5,9.62,8L61,36.9l10.76,8.93L83.85,31.22A36.89,36.89,0,0,0,43.53,15.87Z" transform="translate(-16.18 -14.62)"/><path class="h" d="M38.41,17.65l-.41.18.39.32Z" transform="translate(-16.18 -14.62)"/><polygon class="i" points="46.81 47.66 43.74 44.58 42.16 43 26.52 58.62 32.28 64.4 34.4 66.52 34.26 60.98 34.06 53.52 38.64 53.4 45.67 53.22 52.19 53.05 46.81 47.66"/><path class="j" d="M84,67.25l-15.65.41-6.52.17-7,.18-4.58.12.19,7.47.15,5.53.18,7.14a37.16,37.16,0,0,0,6.74-.2c.64-.08,1.28-.18,1.92-.29,1-.19,2.09-.42,3.14-.7A37,37,0,0,0,86.39,67.19Z" transform="translate(-16.18 -14.62)"/><path class="k" d="M40.64,56.66,32,42.12l-2-3.31-6-10.1a37.29,37.29,0,0,0-5.39,9.49,36.86,36.86,0,0,0,4.89,35.4L43.63,61.7Z" transform="translate(-16.18 -14.62)"/><path class="l" d="M103.6,42.53h10.71a25.61,25.61,0,0,1,8.5,1.34,19.3,19.3,0,0,1,6.5,3.7,16.3,16.3,0,0,1,4.15,5.62,17.81,17.81,0,0,1,0,14.17A16.33,16.33,0,0,1,129.31,73a19.47,19.47,0,0,1-6.5,3.7,25.61,25.61,0,0,1-8.5,1.33H103.6Zm10.87,29.58a16.23,16.23,0,0,0,5.22-.81A11.91,11.91,0,0,0,123.82,69a10.59,10.59,0,0,0,2.69-3.72,13.4,13.4,0,0,0,0-10,10.59,10.59,0,0,0-2.69-3.72,11.93,11.93,0,0,0-4.13-2.33,16.51,16.51,0,0,0-5.22-.8h-3.41V72.11Z" transform="translate(-16.18 -14.62)"/><path class="l" d="M149.85,51.54a12.23,12.23,0,0,1,4.55.8,8.94,8.94,0,0,1,3.33,2.26,9.8,9.8,0,0,1,2,3.52,14.4,14.4,0,0,1,.69,4.61,17.62,17.62,0,0,1-.13,2.16,13.6,13.6,0,0,1-.4,2h-15.4a6.6,6.6,0,0,0,1.76,4.54q1.65,1.69,5.27,1.69a20.76,20.76,0,0,0,4-.39,14.84,14.84,0,0,0,3.52-1.1l.9,5a17.66,17.66,0,0,1-4.37,1.47,24.74,24.74,0,0,1-5.06.5,16.23,16.23,0,0,1-5.75-1,11.4,11.4,0,0,1-6.88-7,15.87,15.87,0,0,1-.9-5.46,16.81,16.81,0,0,1,.88-5.57,12.08,12.08,0,0,1,2.53-4.31,11.21,11.21,0,0,1,4-2.77A13.8,13.8,0,0,1,149.85,51.54Zm-.43,4.9A4.09,4.09,0,0,0,146,58a7.47,7.47,0,0,0-1.41,4h8.9a5.91,5.91,0,0,0-.75-4A3.67,3.67,0,0,0,149.42,56.44Z" transform="translate(-16.18 -14.62)"/><path class="l" d="M176.33,51.54a20.48,20.48,0,0,1,4,.4,12.42,12.42,0,0,1,3.43,1.14l-.79,5.23a13.39,13.39,0,0,0-5.55-1.12c-2.55,0-4.44.7-5.64,2.1A8.51,8.51,0,0,0,169.93,65a8.61,8.61,0,0,0,1.82,5.76c1.2,1.42,3.09,2.13,5.64,2.13a13.55,13.55,0,0,0,5.55-1.12l.79,5.22a11.79,11.79,0,0,1-3.43,1.14,20.48,20.48,0,0,1-4,.4,15.72,15.72,0,0,1-5.92-1,12.37,12.37,0,0,1-4.29-2.86,11.89,11.89,0,0,1-2.61-4.28,16.73,16.73,0,0,1,0-10.71,11.68,11.68,0,0,1,2.61-4.27,12.42,12.42,0,0,1,4.29-2.82A15.72,15.72,0,0,1,176.33,51.54Z" transform="translate(-16.18 -14.62)"/><path class="l" d="M187.41,78V52.07h7.3V78Z" transform="translate(-16.18 -14.62)"/><path class="l" d="M223.86,78h-7V74.66a10.16,10.16,0,0,1-3.28,2.8,9.65,9.65,0,0,1-4.72,1.09,8.8,8.8,0,0,1-4.13-1,9.81,9.81,0,0,1-3.25-2.75,13.6,13.6,0,0,1-2.13-4.18,17.49,17.49,0,0,1-.77-5.3,15.47,15.47,0,0,1,1.07-5.94,12.61,12.61,0,0,1,2.87-4.32,12.27,12.27,0,0,1,4.24-2.63,14.62,14.62,0,0,1,5.2-.91,15.23,15.23,0,0,1,2.53.19,12.07,12.07,0,0,1,2.05.5V40.4h7.3Zm-12.47-5.11a6.28,6.28,0,0,0,3-.67,8,8,0,0,0,2.21-1.73V57.61a10.64,10.64,0,0,0-3.52-.53,6.57,6.57,0,0,0-5.33,2.16,9,9,0,0,0-1.81,6,14,14,0,0,0,.32,3.07,7.07,7.07,0,0,0,1,2.42,4.82,4.82,0,0,0,1.7,1.6A5,5,0,0,0,211.39,72.91Z" transform="translate(-16.18 -14.62)"/><path class="l" d="M240.53,51.54a12.24,12.24,0,0,1,4.56.8,8.94,8.94,0,0,1,3.33,2.26,10,10,0,0,1,2,3.52,14.4,14.4,0,0,1,.69,4.61,19.86,19.86,0,0,1-.13,2.16,13.6,13.6,0,0,1-.4,2h-15.4A6.59,6.59,0,0,0,237,71.43c1.11,1.13,2.86,1.69,5.28,1.69a20.83,20.83,0,0,0,4-.39,15,15,0,0,0,3.52-1.1l.9,5a17.8,17.8,0,0,1-4.37,1.47,24.74,24.74,0,0,1-5.06.5,16.19,16.19,0,0,1-5.75-1,11.4,11.4,0,0,1-6.88-7,15.87,15.87,0,0,1-.9-5.46,16.81,16.81,0,0,1,.88-5.57,12.08,12.08,0,0,1,2.53-4.31,11.21,11.21,0,0,1,4-2.77A13.79,13.79,0,0,1,240.53,51.54Zm-.42,4.9A4.09,4.09,0,0,0,236.67,58a7.47,7.47,0,0,0-1.41,4h8.9a5.91,5.91,0,0,0-.75-4A3.67,3.67,0,0,0,240.11,56.44Z" transform="translate(-16.18 -14.62)"/><path class="l" d="M271.07,58.31h-1.23a10.62,10.62,0,0,0-4.53.85,6.89,6.89,0,0,0-2.88,2.45V78h-7.3V52.07h7v4.58a7.23,7.23,0,0,1,2.37-3.57,6.83,6.83,0,0,1,4.34-1.27,16.79,16.79,0,0,1,3.12.27Z" transform="translate(-16.18 -14.62)"/><path class="l" d="M114,23.35v2.29h-3.79V37.89h-2.88V25.64h-3.79V23.35Z" transform="translate(-16.18 -14.62)"/><path class="l" d="M115.25,37.89V23.35h2.82v5.73A3.11,3.11,0,0,1,119.29,28a3.57,3.57,0,0,1,1.6-.35,3.15,3.15,0,0,1,1.66.41,3.27,3.27,0,0,1,1.12,1.1,5.07,5.07,0,0,1,.64,1.61,9.07,9.07,0,0,1,.2,1.9v5.21h-2.82V32.66a4.06,4.06,0,0,0-.42-2.06,1.48,1.48,0,0,0-1.39-.7,2,2,0,0,0-1.07.29,2.69,2.69,0,0,0-.74.68v7Z" transform="translate(-16.18 -14.62)"/><path class="l" d="M130.85,27.66a4.81,4.81,0,0,1,1.76.3,3.4,3.4,0,0,1,1.29.88,3.73,3.73,0,0,1,.78,1.36A5.5,5.5,0,0,1,135,32a7.86,7.86,0,0,1,0,.83,5.4,5.4,0,0,1-.15.78H128.8a2.52,2.52,0,0,0,.67,1.75,2.75,2.75,0,0,0,2,.65,8.12,8.12,0,0,0,1.57-.14,6.21,6.21,0,0,0,1.36-.43l.35,1.91a6.85,6.85,0,0,1-1.69.57,9.65,9.65,0,0,1-2,.2,6.11,6.11,0,0,1-2.22-.38,4.37,4.37,0,0,1-1.64-1,4.61,4.61,0,0,1-1-1.63,6.18,6.18,0,0,1-.35-2.11,6.64,6.64,0,0,1,.34-2.15,4.76,4.76,0,0,1,1-1.67A4.3,4.3,0,0,1,128.79,28,5.22,5.22,0,0,1,130.85,27.66Zm-.16,1.89a1.56,1.56,0,0,0-1.33.61,2.81,2.81,0,0,0-.54,1.53h3.43a2.29,2.29,0,0,0-.28-1.55A1.43,1.43,0,0,0,130.69,29.55Z" transform="translate(-16.18 -14.62)"/><rect class="f" x="187.41" y="40.86" width="7.3" height="7.3" transform="translate(31.67 -104.18) rotate(30)"/></svg>