<svg width="951" height="902" viewBox="0 0 951 902" fill="none" xmlns="http://www.w3.org/2000/svg">
<g id="post-it">
<g id="note-12">
<rect id="Rectangle 16" width="283.302" height="215.252" transform="matrix(0.986851 0.161633 -0.174983 0.984571 303.523 107.207)" fill="#ECF005"/>
<path id="?" d="M404.433 274.075C406.028 265.101 408.39 258.133 411.52 253.17C414.65 248.208 419.562 243.636 426.256 239.455C433.025 235.22 437.658 231.659 440.155 228.769C442.664 225.816 444.237 222.544 444.875 218.955C446.8 208.122 442.751 201.885 432.729 200.243C427.974 199.464 423.889 200.313 420.474 202.788C417.135 205.209 414.945 208.973 413.905 214.08L385.957 209.503C388.262 197.281 393.916 188.345 402.92 182.696C411.989 177.057 423.269 175.342 436.761 177.552C450.382 179.783 460.364 184.815 466.708 192.648C473.063 200.418 475.175 210.296 473.045 222.282C472.076 227.731 469.939 232.691 466.631 237.163C463.336 241.57 458.112 246.223 450.96 251.12L441.838 257.245C436.124 261.125 432.355 266.148 430.532 272.314L429.104 278.116L404.433 274.075ZM396.392 303.135C397.155 298.84 399.227 295.551 402.608 293.269C406.065 290.932 410.074 290.138 414.636 290.885C419.197 291.632 422.673 293.653 425.063 296.947C427.528 300.187 428.38 303.954 427.616 308.249C426.864 312.48 424.798 315.736 421.417 318.019C418.1 320.312 414.097 321.075 409.407 320.307C404.717 319.539 401.171 317.54 398.77 314.31C396.432 311.09 395.64 307.365 396.392 303.135Z" fill="black"/>
</g>
<g id="note-11">
<rect id="Rectangle 16_2" width="283.302" height="215.252" transform="matrix(0.986851 0.161633 -0.174983 0.984571 81.7313 529.323)" fill="#ECF005"/>
<path id="?_2" d="M182.641 696.191C184.236 687.217 186.598 680.249 189.728 675.286C192.858 670.324 197.77 665.752 204.464 661.571C211.233 657.337 215.866 653.775 218.363 650.886C220.872 647.932 222.445 644.661 223.083 641.071C225.008 630.238 220.96 624.001 210.937 622.359C206.182 621.581 202.098 622.429 198.682 624.904C195.343 627.325 193.153 631.09 192.113 636.197L164.165 631.619C166.47 619.397 172.124 610.461 181.129 604.812C190.197 599.173 201.478 597.458 214.97 599.668C228.59 601.899 238.572 606.931 244.916 614.765C251.271 622.534 253.383 632.412 251.253 644.399C250.285 649.847 248.147 654.807 244.84 659.279C241.544 663.687 236.32 668.339 229.168 673.237L220.047 679.362C214.332 683.241 210.563 688.264 208.74 694.43L207.312 700.232L182.641 696.191ZM174.6 725.251C175.363 720.957 177.435 717.668 180.817 715.385C184.273 713.049 188.282 712.254 192.844 713.001C197.406 713.748 200.881 715.769 203.271 719.063C205.737 722.303 206.588 726.071 205.825 730.365C205.073 734.596 203.006 737.853 199.625 740.135C196.308 742.429 192.305 743.191 187.615 742.423C182.925 741.655 179.379 739.656 176.978 736.426C174.641 733.207 173.848 729.482 174.6 725.251Z" fill="black"/>
</g>
<g id="note-10">
<rect id="Rectangle 16_3" width="283.251" height="215.294" transform="matrix(0.984699 -0.174263 0.188587 0.982056 547.504 568.196)" fill="#9F29D3"/>
<path id="?_3" d="M702.066 691.511C700.347 682.56 700.068 675.238 701.228 669.546C702.389 663.853 705.363 657.939 710.151 651.803C714.99 645.592 718.064 640.718 719.374 637.181C720.671 633.58 720.975 629.989 720.288 626.408C718.213 615.603 712.175 611.086 702.174 612.855C697.43 613.695 693.898 615.841 691.578 619.292C689.31 622.668 688.603 626.925 689.457 632.063L661.57 636.998C659.353 624.764 661.46 614.508 667.891 606.23C674.386 597.94 684.365 592.605 697.828 590.222C711.419 587.817 722.597 589.243 731.362 594.501C740.115 599.695 745.64 608.27 747.935 620.226C748.979 625.661 748.749 631.023 747.246 636.314C745.731 641.54 742.493 647.633 737.532 654.593L731.161 663.356C727.185 668.886 725.447 674.846 725.945 681.236L726.683 687.154L702.066 691.511ZM704.931 721.447C704.108 717.163 704.876 713.392 707.233 710.132C709.641 706.797 713.121 704.726 717.673 703.921C722.225 703.115 726.213 703.864 729.638 706.167C733.115 708.394 735.265 711.65 736.088 715.933C736.898 720.153 736.125 723.893 733.768 727.153C731.475 730.401 727.989 732.439 723.309 733.268C718.629 734.096 714.582 733.391 711.17 731.152C707.821 728.902 705.741 725.667 704.931 721.447Z" fill="black"/>
</g>
<g id="note-09">
<rect id="Rectangle 16_4" width="283.251" height="215.294" transform="matrix(0.984699 -0.174263 0.188587 0.982056 325.372 339.222)" fill="#9F29D3"/>
<path id="?_4" d="M479.934 462.537C478.215 453.586 477.936 446.264 479.097 440.572C480.257 434.879 483.231 428.965 488.019 422.829C492.858 416.618 495.932 411.744 497.242 408.207C498.539 404.606 498.844 401.015 498.156 397.434C496.081 386.629 490.043 382.112 480.042 383.881C475.298 384.721 471.766 386.867 469.446 390.318C467.178 393.694 466.471 397.951 467.325 403.089L439.438 408.024C437.221 395.79 439.328 385.534 445.759 377.256C452.254 368.966 462.233 363.631 475.696 361.248C489.287 358.843 500.465 360.269 509.23 365.527C517.983 370.721 523.508 379.296 525.804 391.252C526.847 396.687 526.618 402.049 525.115 407.34C523.599 412.566 520.361 418.659 515.401 425.619L509.03 434.382C505.054 439.912 503.315 445.872 503.813 452.262L504.552 458.18L479.934 462.537ZM482.799 492.473C481.977 488.189 482.744 484.418 485.101 481.158C487.509 477.823 490.99 475.752 495.541 474.947C500.093 474.141 504.081 474.89 507.506 477.193C510.983 479.42 513.133 482.676 513.956 486.959C514.766 491.179 513.993 494.919 511.636 498.179C509.343 501.427 505.857 503.465 501.177 504.294C496.497 505.122 492.451 504.417 489.038 502.178C485.689 499.928 483.61 496.693 482.799 492.473Z" fill="black"/>
</g>
<g id="note-08">
<rect id="Rectangle 16_5" width="283.302" height="215.252" transform="matrix(0.986851 0.161633 -0.174983 0.984571 303.523 107.207)" fill="#ECF005"/>
<path id="?_5" d="M404.433 274.075C406.028 265.101 408.39 258.133 411.52 253.17C414.65 248.208 419.562 243.636 426.256 239.455C433.025 235.22 437.658 231.659 440.155 228.769C442.664 225.816 444.237 222.544 444.875 218.955C446.8 208.122 442.751 201.885 432.729 200.243C427.974 199.464 423.889 200.313 420.474 202.788C417.135 205.209 414.945 208.973 413.905 214.08L385.957 209.503C388.262 197.281 393.916 188.345 402.92 182.696C411.989 177.057 423.269 175.342 436.761 177.552C450.382 179.783 460.364 184.815 466.708 192.648C473.063 200.418 475.175 210.296 473.045 222.282C472.076 227.731 469.939 232.691 466.631 237.163C463.336 241.57 458.112 246.223 450.96 251.12L441.838 257.245C436.124 261.125 432.355 266.148 430.532 272.314L429.104 278.116L404.433 274.075ZM396.392 303.135C397.155 298.84 399.227 295.551 402.608 293.269C406.065 290.932 410.074 290.138 414.636 290.885C419.197 291.632 422.673 293.653 425.063 296.947C427.528 300.187 428.38 303.954 427.616 308.249C426.864 312.48 424.798 315.736 421.417 318.019C418.1 320.312 414.097 321.075 409.407 320.307C404.717 319.539 401.171 317.54 398.77 314.31C396.432 311.09 395.64 307.365 396.392 303.135Z" fill="black"/>
</g>
<g id="note-07">
<rect id="Rectangle 16_6" width="283.302" height="215.252" transform="matrix(0.986851 0.161633 -0.174983 0.984571 216.467 395.609)" fill="#2185D6"/>
<path id="?_6" d="M317.377 562.477C318.972 553.503 321.334 546.535 324.464 541.572C327.594 536.61 332.506 532.038 339.2 527.857C345.969 523.623 350.602 520.061 353.099 517.172C355.608 514.218 357.181 510.947 357.819 507.357C359.744 496.524 355.695 490.287 345.673 488.645C340.918 487.867 336.833 488.715 333.418 491.19C330.079 493.612 327.889 497.376 326.849 502.483L298.901 497.905C301.206 485.683 306.86 476.747 315.864 471.098C324.933 465.459 336.213 463.744 349.705 465.954C363.326 468.185 373.308 473.217 379.652 481.051C386.007 488.82 388.119 498.698 385.989 510.685C385.02 516.133 382.883 521.093 379.575 525.565C376.28 529.973 371.056 534.625 363.904 539.523L354.782 545.648C349.068 549.527 345.299 554.55 343.476 560.716L342.048 566.518L317.377 562.477ZM309.336 591.537C310.099 587.243 312.171 583.954 315.552 581.671C319.009 579.335 323.018 578.54 327.58 579.287C332.141 580.034 335.617 582.055 338.007 585.349C340.472 588.589 341.324 592.357 340.56 596.651C339.808 600.882 337.742 604.139 334.361 606.421C331.044 608.715 327.041 609.477 322.351 608.709C317.661 607.941 314.115 605.942 311.714 602.712C309.376 599.493 308.584 595.768 309.336 591.537Z" fill="black"/>
</g>
<g id="note-06">
<rect id="Rectangle 16_7" width="269.855" height="221.28" rx="2" transform="matrix(0.845309 -0.534277 0.5656 0.82468 572.084 443.653)" fill="#FEAA3A"/>
<path id="?_7" d="M759.796 499.244C754.64 491.727 751.47 485.15 750.285 479.511C749.1 473.872 749.511 467.339 751.518 459.914C753.543 452.399 754.461 446.778 754.271 443.05C754.044 439.269 752.899 435.874 750.837 432.868C744.614 423.794 737.21 421.97 728.625 427.397C724.552 429.971 722.125 433.275 721.342 437.31C720.578 441.257 721.613 445.412 724.449 449.777L700.51 464.908C693.587 454.584 691.466 444.418 694.148 434.41C696.886 424.368 704.033 415.695 715.59 408.39C727.257 401.016 738.206 398.059 748.438 399.52C758.632 400.926 767.173 406.65 774.059 416.69C777.189 421.254 779.107 426.236 779.814 431.639C780.485 436.987 779.9 443.783 778.059 452.027L775.626 462.455C774.132 469.018 774.886 475.121 777.889 480.766L780.928 485.887L759.796 499.244ZM774.359 525.481C771.891 521.884 771.104 518.148 771.998 514.275C772.909 510.312 775.318 507.096 779.226 504.626C783.133 502.157 787.135 501.321 791.232 502.118C795.347 502.826 798.638 504.979 801.105 508.576C803.535 512.12 804.304 515.829 803.411 519.703C802.572 523.542 800.145 526.731 796.127 529.27C792.11 531.809 788.071 532.707 784.011 531.964C780.006 531.186 776.789 529.025 774.359 525.481Z" fill="black"/>
</g>
<g id="note-05">
<rect id="Rectangle 16_8" x="157.735" y="434.901" width="300" height="250" rx="2" transform="rotate(-33.3608 157.735 434.901)" fill="#FEAA3A"/>
<path id="?_8" d="M350.676 485.27C345.664 477.657 342.597 470.985 341.474 465.255C340.351 459.524 340.805 452.873 342.835 445.301C344.883 437.638 345.828 431.911 345.669 428.118C345.475 424.27 344.375 420.824 342.37 417.779C336.32 408.59 329.053 406.787 320.57 412.372C316.546 415.022 314.134 418.402 313.334 422.515C312.553 426.537 313.54 430.759 316.295 435.181L292.641 450.754C285.912 440.297 283.904 429.966 286.617 419.761C289.384 409.521 296.477 400.641 307.897 393.123C319.424 385.533 330.213 382.444 340.263 383.856C350.276 385.214 358.631 390.977 365.326 401.145C368.369 405.767 370.218 410.825 370.872 416.318C371.491 421.757 370.864 428.678 368.992 437.082L366.521 447.712C365.002 454.402 365.697 460.609 368.608 466.332L371.557 471.522L350.676 485.27ZM364.798 511.867C362.399 508.224 361.653 504.428 362.561 500.479C363.487 496.439 365.88 493.149 369.741 490.607C373.602 488.065 377.543 487.185 381.565 487.966C385.606 488.657 388.826 490.825 391.225 494.468C393.588 498.057 394.315 501.826 393.408 505.775C392.555 509.689 390.143 512.952 386.174 515.566C382.204 518.179 378.226 519.122 374.24 518.395C370.308 517.632 367.161 515.456 364.798 511.867Z" fill="black"/>
</g>
<g id="note-04">
<g id="post it notes">
<rect id="Rectangle 16_9" width="265.229" height="225.131" transform="matrix(0.657218 -0.760994 0.778256 0.61941 575.726 235.633)" fill="#3DCE22"/>
<path id="?_9" d="M771.977 234.499C764.883 228.854 759.961 223.515 757.211 218.484C754.46 213.452 752.983 207.094 752.781 199.409C752.571 191.634 751.84 185.995 750.591 182.492C749.29 178.949 747.221 176.049 744.384 173.79C735.821 166.975 728.202 167.432 721.527 175.161C718.361 178.827 716.981 182.703 717.386 186.787C717.783 190.782 719.966 194.442 723.934 197.767L705.321 219.318C695.729 211.517 690.786 202.441 690.491 192.091C690.239 181.692 694.606 171.29 703.591 160.886C712.662 150.382 722.31 144.309 732.535 142.666C742.709 140.983 752.534 143.911 762.009 151.452C766.315 154.88 769.581 159.068 771.806 164.015C773.98 168.922 775.365 175.584 775.962 184.001L776.615 194.678C777.062 201.387 779.533 206.99 784.028 211.487L788.407 215.474L771.977 234.499ZM793.448 255.225C790.053 252.523 788.229 249.19 787.976 245.227C787.715 241.173 789.103 237.388 792.141 233.87C795.179 230.353 798.776 228.366 802.93 227.911C807.077 227.366 810.848 228.445 814.243 231.146C817.587 233.808 819.386 237.12 819.639 241.084C819.935 244.998 818.521 248.763 815.398 252.38C812.274 255.997 808.66 258.053 804.556 258.548C800.495 258.994 796.792 257.886 793.448 255.225Z" fill="black"/>
</g>
<rect id="Rectangle 16_10" width="270.276" height="220.923" transform="matrix(0.8672 0.497959 -0.528829 0.848728 591.692 159.676)" fill="#F50F47"/>
<path id="?_10" d="M620.93 346.299C625.75 338.563 630.548 332.953 635.325 329.469C640.103 325.985 646.409 323.492 654.245 321.989C662.171 320.464 667.842 318.806 671.257 317.015C674.707 315.17 677.396 312.7 679.324 309.606C685.142 300.268 683.648 293.07 674.84 288.012C670.662 285.613 666.511 284.955 662.387 286.038C658.353 287.098 654.903 289.806 652.036 294.162L627.476 280.059C634.165 269.57 642.784 263.303 653.334 261.258C663.94 259.246 675.172 261.644 687.028 268.452C698.997 275.325 706.511 283.503 709.571 292.988C712.665 302.417 710.993 312.298 704.554 322.631C701.628 327.327 697.784 331.16 693.022 334.127C688.294 337.039 681.665 339.497 673.134 341.501L662.297 343.944C655.493 345.514 650.094 348.828 646.099 353.886L642.61 358.748L620.93 346.299ZM602.619 370.334C604.926 366.632 608.09 364.322 612.111 363.405C616.223 362.465 620.283 363.146 624.292 365.448C628.3 367.749 630.817 370.845 631.843 374.735C632.96 378.603 632.365 382.387 630.058 386.09C627.786 389.736 624.639 392.018 620.618 392.936C616.653 393.885 612.61 393.177 608.489 390.81C604.367 388.443 601.776 385.343 600.716 381.508C599.712 377.705 600.347 373.981 602.619 370.334Z" fill="black"/>
</g>
<g id="note-03">
<g id="post it notes_2">
<rect id="Rectangle 16_11" width="265.229" height="225.131" transform="matrix(0.657218 -0.760994 0.778256 0.61941 383.131 607.646)" fill="#CBCE22"/>
<path id="?_11" d="M579.382 606.512C572.289 600.867 567.367 595.528 564.616 590.496C561.865 585.465 560.389 579.106 560.186 571.421C559.976 563.646 559.246 558.008 557.996 554.505C556.696 550.962 554.627 548.062 551.789 545.803C543.227 538.988 535.608 539.445 528.933 547.174C525.767 550.84 524.386 554.715 524.791 558.8C525.189 562.795 527.371 566.454 531.339 569.78L512.726 591.331C503.135 583.53 498.191 574.454 497.896 564.104C497.644 553.704 502.011 543.303 510.996 532.898C520.067 522.395 529.715 516.322 539.94 514.679C550.115 512.995 559.939 515.924 569.414 523.465C573.721 526.893 576.987 531.081 579.211 536.028C581.385 540.935 582.771 547.597 583.367 556.014L584.021 566.691C584.468 573.4 586.939 579.003 591.433 583.5L595.813 587.487L579.382 606.512ZM600.853 627.238C597.459 624.536 595.635 621.203 595.381 617.24C595.12 613.186 596.509 609.401 599.547 605.883C602.585 602.365 606.181 600.379 610.336 599.924C614.483 599.379 618.254 600.457 621.648 603.159C624.992 605.821 626.791 609.133 627.044 613.097C627.34 617.011 625.927 620.776 622.803 624.393C619.68 628.009 616.066 630.066 611.962 630.561C607.9 631.007 604.198 629.899 600.853 627.238Z" fill="black"/>
</g>
<rect id="Rectangle 16_12" width="270.276" height="220.923" transform="matrix(0.8672 0.497959 -0.528829 0.848728 399.098 531.689)" fill="#0FF5CC"/>
<path id="?_12" d="M428.335 718.312C433.155 710.576 437.954 704.966 442.731 701.482C447.508 697.998 453.814 695.505 461.65 694.002C469.576 692.476 475.247 690.818 478.663 689.028C482.112 687.183 484.801 684.713 486.729 681.618C492.547 672.28 491.053 665.082 482.245 660.025C478.068 657.626 473.916 656.968 469.792 658.051C465.759 659.111 462.308 661.819 459.441 666.174L434.882 652.072C441.57 641.583 450.19 635.316 460.74 633.271C471.346 631.259 482.577 633.656 494.433 640.464C506.403 647.337 513.917 655.516 516.976 665C520.07 674.43 518.398 684.311 511.96 694.643C509.033 699.34 505.189 703.172 500.427 706.14C495.699 709.052 489.07 711.51 480.539 713.514L469.703 715.957C462.899 717.527 457.499 720.841 453.504 725.899L450.015 730.761L428.335 718.312ZM410.025 742.347C412.331 738.644 415.495 736.335 419.516 735.418C423.628 734.478 427.688 735.159 431.697 737.46C435.706 739.762 438.223 742.858 439.248 746.748C440.365 750.615 439.77 754.4 437.463 758.102C435.191 761.749 432.044 764.031 428.023 764.948C424.059 765.898 420.016 765.189 415.894 762.823C411.773 760.456 409.182 757.355 408.122 753.521C407.118 749.718 407.752 745.993 410.025 742.347Z" fill="black"/>
</g>
<g id="note-02">
<rect id="Rectangle 16_13" width="264.159" height="226.014" transform="matrix(0.435751 -0.900067 0.913865 0.406019 0.367737 503.24)" fill="#F50F47"/>
<path id="?_13" d="M188.002 453.789C179.676 450.082 173.526 446.133 169.553 441.942C165.579 437.751 162.488 431.958 160.279 424.564C158.038 417.085 155.856 411.804 153.732 408.721C151.549 405.612 148.792 403.317 145.461 401.834C135.41 397.359 128.175 399.694 123.757 408.838C121.662 413.176 121.344 417.273 122.806 421.129C124.236 424.9 127.302 427.903 132.003 430.139L119.684 455.638C108.381 450.463 101.231 442.9 98.2348 432.947C95.2667 422.935 96.7562 411.775 102.703 399.465C108.707 387.037 116.429 378.758 125.868 374.627C135.248 370.469 145.499 370.866 156.62 375.818C161.676 378.068 165.925 381.314 169.369 385.554C172.754 389.767 175.836 395.876 178.618 403.881L182.046 414.062C184.235 420.45 188.088 425.264 193.605 428.504L198.877 431.279L188.002 453.789ZM214.158 468.532C210.174 466.758 207.54 463.983 206.257 460.206C204.943 456.345 205.291 452.333 207.302 448.171C209.312 444.009 212.263 441.192 216.155 439.719C220.015 438.161 223.937 438.269 227.922 440.043C231.847 441.791 234.451 444.553 235.734 448.329C237.046 452.047 236.668 456.046 234.6 460.325C232.533 464.604 229.583 467.493 225.752 468.993C221.948 470.433 218.084 470.28 214.158 468.532Z" fill="black"/>
</g>
<g id="note-01">
<rect id="Rectangle 16_14" width="266.702" height="223.939" transform="matrix(0.653589 -0.756792 0.782399 0.622708 0.367737 271.465)" fill="#3DCE22"/>
<path id="?_14" d="M197.082 270.94C189.95 265.264 184.994 259.906 182.213 254.866C179.432 249.826 177.919 243.467 177.673 235.79C177.42 228.022 176.658 222.386 175.387 218.881C174.066 215.335 171.979 212.427 169.127 210.157C160.518 203.305 152.895 203.723 146.257 211.409C143.108 215.055 141.748 218.919 142.176 223.001C142.596 226.993 144.801 230.66 148.791 234.002L130.281 255.435C120.637 247.593 115.639 238.502 115.286 228.162C114.976 217.772 119.289 207.404 128.225 197.057C137.246 186.612 146.869 180.595 157.094 179.006C167.268 177.377 177.118 180.352 186.643 187.934C190.973 191.38 194.265 195.579 196.519 200.533C198.723 205.445 200.146 212.107 200.79 220.518L201.503 231.186C201.988 237.89 204.492 243.5 209.016 248.015L213.421 252.02L197.082 270.94ZM218.687 291.752C215.274 289.036 213.43 285.698 213.155 281.737C212.871 277.687 214.24 273.913 217.261 270.414C220.282 266.916 223.87 264.95 228.026 264.517C232.174 263.994 235.954 265.09 239.367 267.807C242.729 270.482 244.548 273.8 244.823 277.761C245.141 281.672 243.747 285.426 240.641 289.023C237.535 292.619 233.929 294.655 229.824 295.129C225.761 295.553 222.049 294.428 218.687 291.752Z" fill="black"/>
</g>
</g>
</svg>
